<?xml version="1.0" standalone="no"?>
<!DOCTYPE svg PUBLIC "-//W3C//DTD SVG 20010904//EN"
 "http://www.w3.org/TR/2001/REC-SVG-20010904/DTD/svg10.dtd">
<svg version="1.0" xmlns="http://www.w3.org/2000/svg"
 width="256.000000pt" height="256.000000pt" viewBox="0 0 256.000000 256.000000"
 preserveAspectRatio="xMidYMid meet">
<metadata>
Created by potrace 1.11, written by Peter Selinger 2001-2013
</metadata>
<g transform="translate(0.000000,256.000000) scale(0.100000,-0.100000)"
fill="#000000" stroke="none">
<path d="M1179 2548 c-1 -7 -1 -54 -1 -105 l1 -91 -52 -7 c-29 -4 -61 -9 -72
-11 -11 -2 -32 -6 -47 -9 -41 -8 -198 -65 -253 -92 -208 -104 -397 -288 -508
-493 -107 -198 -148 -372 -142 -605 11 -438 275 -835 681 -1026 316 -149 704
-143 1023 17 345 172 591 518 639 899 9 68 8 236 -1 311 -46 381 -314 745
-668 908 -85 39 -215 81 -280 91 -24 4 -51 9 -59 10 -8 2 -25 4 -36 4 -21 1
-22 6 -22 89 0 48 -1 95 -1 105 -1 15 -13 17 -101 17 -73 0 -100 -3 -101 -12z
m291 -311 c227 -44 431 -155 586 -320 199 -210 298 -462 297 -752 -1 -84 -3
-110 -18 -190 -38 -203 -141 -398 -291 -549 -326 -330 -823 -416 -1233 -214
-258 127 -451 345 -547 619 -13 37 -26 81 -29 99 -3 19 -8 36 -10 40 -6 10
-18 139 -18 200 -1 212 62 424 179 602 96 147 283 308 439 378 78 36 211 78
272 86 26 3 50 8 52 10 6 5 289 -3 321 -9z"/>
<path d="M1252 2034 l-22 -15 0 -347 0 -347 -35 -22 c-87 -57 -91 -170 -9
-242 43 -38 44 -40 44 -101 0 -48 4 -66 18 -76 47 -36 82 -1 82 84 0 57 2 62
29 78 16 9 39 35 51 57 41 72 22 156 -45 200 l-35 22 0 347 0 347 -22 15 c-12
9 -25 16 -28 16 -3 0 -16 -7 -28 -16z"/>
<path d="M2166 2381 l-69 -70 31 -32 32 -33 -37 -38 -37 -38 42 -42 42 -42 38
37 38 37 29 -30 c16 -16 31 -30 35 -30 8 0 140 132 140 141 0 8 -201 209 -209
209 -4 0 -38 -31 -75 -69z"/>
</g>
</svg>
